<?xml version="1.0" encoding="UTF-8" standalone="no"?>
<svg
   xmlns:dc="http://purl.org/dc/elements/1.1/"
   xmlns:cc="http://creativecommons.org/ns#"
   xmlns:rdf="http://www.w3.org/1999/02/22-rdf-syntax-ns#"
   xmlns:svg="http://www.w3.org/2000/svg"
   xmlns="http://www.w3.org/2000/svg"
   id="svg438"
   height="127.06mm"
   width="140.69mm"
   version="1.0">
  <metadata
     id="metadata442">
    <rdf:RDF>
      <cc:Work
         rdf:about="">
        <dc:format>image/svg+xml</dc:format>
        <dc:type
           rdf:resource="http://purl.org/dc/dcmitype/StillImage" />
      </cc:Work>
    </rdf:RDF>
  </metadata>
  <defs
     id="defs6">
    <clipPath
       id="clipEmfPath1"
       clipPathUnits="userSpaceOnUse">
      <path
         id="path2"
         d="M -11.836875,-7.3580577 L 519.86277,-7.3580577 L 519.86277,472.83518 L -11.836875,472.83518 z" />
    </clipPath>
    <pattern
       y="0"
       x="0"
       height="6"
       width="6"
       patternUnits="userSpaceOnUse"
       id="EMFhbasepattern" />
  </defs>
  <path
     id="path8"
     d="  M 278.16657,287.68406   C 278.16657,284.56488 280.7259,282.00556 283.84507,282.00556   L 367.54298,282.00556   C 370.66216,282.00556 373.18149,284.56488 373.18149,287.68406   L 373.18149,310.27809   C 373.18149,313.39727 370.66216,315.91661 367.54298,315.91661   L 283.84507,315.91661   C 280.7259,315.91661 278.16657,313.39727 278.16657,310.27809   z "
     style="fill:#ffffff;fill-rule:evenodd;fill-opacity:1;stroke:none;" />
  <path
     id="path10"
     d="  M 278.16657,287.68406   C 278.16657,284.56488 280.7259,282.00556 283.84507,282.00556   L 367.54298,282.00556   C 370.66216,282.00556 373.18149,284.56488 373.18149,287.68406   L 373.18149,310.27809   C 373.18149,313.39727 370.66216,315.91661 367.54298,315.91661   L 283.84507,315.91661   C 280.7259,315.91661 278.16657,313.39727 278.16657,310.27809   z "
     style="fill:none;stroke:#000000;stroke-width:1.2796623px;stroke-linecap:butt;stroke-linejoin:miter;stroke-miterlimit:8;stroke-dasharray:none;stroke-opacity:1;" />
  <text
     id="text16"
     y="0.000000"
     x="0.000000"
     transform="matrix(1.000000,-0.000000,0.000000,1.000000,300.850896,306.108063)"
     style="font-size:18.562500px;font-style:normal;font-variant:normal;font-weight:400;font-stretch:Normal;line-height:125.000000%;letter-spacing:0px;word-spacing:0px;fill:#000000;fill-opacity:1;stroke:none;font-family:Arial;text-align:start;text-anchor:start;"
     xml:space="preserve"><tspan
       id="tspan14"
       y="0.000000"
       x="0.000000"><tspan
         id="tspan12"
         style="fill:#000000;font-size:18.562500px;font-style:normal;font-variant:normal;font-weight:400;font-stretch:Normal;font-family:Arial;"
         dy="0.000000"
         dx="0.000000">|h</tspan></tspan></text>
  <text
     id="text22"
     y="0.000000"
     x="0.000000"
     transform="matrix(1.000000,-0.000000,0.000000,1.000000,315.567011,310.586881)"
     style="font-size:12.500000px;font-style:normal;font-variant:normal;font-weight:400;font-stretch:Normal;line-height:125.000000%;letter-spacing:0px;word-spacing:0px;fill:#000000;fill-opacity:1;stroke:none;font-family:Arial;text-align:start;text-anchor:start;"
     xml:space="preserve"><tspan
       id="tspan20"
       y="0.000000"
       x="0.000000"><tspan
         id="tspan18"
         style="fill:#000000;font-size:12.500000px;font-style:normal;font-variant:normal;font-weight:400;font-stretch:Normal;font-family:Arial;"
         dy="0.000000"
         dx="0.000000">1</tspan></tspan></text>
  <text
     id="text28"
     y="0.000000"
     x="0.000000"
     transform="matrix(1.000000,-0.000000,0.000000,1.000000,322.605153,306.108063)"
     style="font-size:18.562500px;font-style:normal;font-variant:normal;font-weight:400;font-stretch:Normal;line-height:125.000000%;letter-spacing:0px;word-spacing:0px;fill:#000000;fill-opacity:1;stroke:none;font-family:Arial;text-align:start;text-anchor:start;"
     xml:space="preserve"><tspan
       id="tspan26"
       y="0.000000"
       x="0.000000"><tspan
         id="tspan24"
         style="fill:#000000;font-size:18.562500px;font-style:normal;font-variant:normal;font-weight:400;font-stretch:Normal;font-family:Arial;"
         dy="0.000000"
         dx="0.000000">-</tspan></tspan></text>
  <text
     id="text34"
     y="0.000000"
     x="0.000000"
     transform="matrix(1.000000,-0.000000,0.000000,1.000000,328.683549,306.108063)"
     style="font-size:18.562500px;font-style:normal;font-variant:normal;font-weight:400;font-stretch:Normal;line-height:125.000000%;letter-spacing:0px;word-spacing:0px;fill:#000000;fill-opacity:1;stroke:none;font-family:Arial;text-align:start;text-anchor:start;"
     xml:space="preserve"><tspan
       id="tspan32"
       y="0.000000"
       x="0.000000"><tspan
         id="tspan30"
         style="fill:#000000;font-size:18.562500px;font-style:normal;font-variant:normal;font-weight:400;font-stretch:Normal;font-family:Arial;"
         dy="0.000000"
         dx="0.000000">h</tspan></tspan></text>
  <text
     id="text40"
     y="0.000000"
     x="0.000000"
     transform="matrix(1.000000,-0.000000,0.000000,1.000000,338.920847,310.586881)"
     style="font-size:12.500000px;font-style:normal;font-variant:normal;font-weight:400;font-stretch:Normal;line-height:125.000000%;letter-spacing:0px;word-spacing:0px;fill:#000000;fill-opacity:1;stroke:none;font-family:Arial;text-align:start;text-anchor:start;"
     xml:space="preserve"><tspan
       id="tspan38"
       y="0.000000"
       x="0.000000"><tspan
         id="tspan36"
         style="fill:#000000;font-size:12.500000px;font-style:normal;font-variant:normal;font-weight:400;font-stretch:Normal;font-family:Arial;"
         dy="0.000000"
         dx="0.000000">2</tspan></tspan></text>
  <text
     id="text46"
     y="0.000000"
     x="0.000000"
     transform="matrix(1.000000,-0.000000,0.000000,1.000000,345.958989,306.108063)"
     style="font-size:18.562500px;font-style:normal;font-variant:normal;font-weight:400;font-stretch:Normal;line-height:125.000000%;letter-spacing:0px;word-spacing:0px;fill:#000000;fill-opacity:1;stroke:none;font-family:Arial;text-align:start;text-anchor:start;"
     xml:space="preserve"><tspan
       id="tspan44"
       y="0.000000"
       x="0.000000"><tspan
         id="tspan42"
         style="fill:#000000;font-size:18.562500px;font-style:normal;font-variant:normal;font-weight:400;font-stretch:Normal;font-family:Arial;"
         dy="0.000000"
         dx="0.000000">|</tspan></tspan></text>
  <path
     id="path48"
     d="  M 219.30211,336.23124   C 219.30211,333.15206 221.82145,330.63272 224.90063,330.63272   L 426.12751,330.63272   C 429.24669,330.63272 431.72604,333.15206 431.72604,336.23124   L 431.72604,358.62533   C 431.72604,361.74451 429.24669,364.22385 426.12751,364.22385   L 224.90063,364.22385   C 221.82145,364.22385 219.30211,361.74451 219.30211,358.62533   z "
     style="fill:#ffffff;fill-rule:evenodd;fill-opacity:1;stroke:none;" />
  <path
     id="path50"
     d="  M 219.30211,336.23124   C 219.30211,333.15206 221.82145,330.63272 224.90063,330.63272   L 426.12751,330.63272   C 429.24669,330.63272 431.72604,333.15206 431.72604,336.23124   L 431.72604,358.62533   C 431.72604,361.74451 429.24669,364.22385 426.12751,364.22385   L 224.90063,364.22385   C 221.82145,364.22385 219.30211,361.74451 219.30211,358.62533   z "
     style="fill:none;stroke:#000000;stroke-width:1.2796623px;stroke-linecap:butt;stroke-linejoin:miter;stroke-miterlimit:8;stroke-dasharray:none;stroke-opacity:1;" />
  <text
     id="text56"
     y="0.000000"
     x="0.000000"
     transform="matrix(1.000000,-0.000000,0.000000,1.000000,245.632191,354.633222)"
     style="font-size:18.562500px;font-style:normal;font-variant:normal;font-weight:400;font-stretch:Normal;line-height:125.000000%;letter-spacing:0px;word-spacing:0px;fill:#000000;fill-opacity:1;stroke:none;font-family:Arial;text-align:start;text-anchor:start;"
     xml:space="preserve"><tspan
       id="tspan54"
       y="0.000000"
       x="0.000000"><tspan
         id="tspan52"
         style="fill:#000000;font-size:18.562500px;font-style:normal;font-variant:normal;font-weight:400;font-stretch:Normal;font-family:Arial;"
         dy="0.000000"
         dx="0.000000">Probabilistic</tspan></tspan></text>
  <text
     id="text62"
     y="0.000000"
     x="0.000000"
     transform="matrix(1.000000,-0.000000,0.000000,1.000000,351.204323,354.633222)"
     style="font-size:18.562500px;font-style:normal;font-variant:normal;font-weight:400;font-stretch:Normal;line-height:125.000000%;letter-spacing:0px;word-spacing:0px;fill:#000000;fill-opacity:1;stroke:none;font-family:Arial;text-align:start;text-anchor:start;"
     xml:space="preserve"><tspan
       id="tspan60"
       y="0.000000"
       x="0.000000"><tspan
         id="tspan58"
         style="fill:#000000;font-size:18.562500px;font-style:normal;font-variant:normal;font-weight:400;font-stretch:Normal;font-family:Arial;"
         dy="0.000000"
         dx="0.000000">Layers</tspan></tspan></text>
  <path
     id="path64"
     d="  M 355.26622,208.26502   C 355.26622,205.18584 357.78555,202.6665 360.86474,202.6665   L 512.50471,202.6665   C 515.62389,202.6665 518.10323,205.18584 518.10323,208.26502   L 518.10323,230.65911   C 518.10323,233.77829 515.62389,236.25763 512.50471,236.25763   L 360.86474,236.25763   C 357.78555,236.25763 355.26622,233.77829 355.26622,230.65911   z "
     style="fill:#ffffff;fill-rule:evenodd;fill-opacity:1;stroke:none;" />
  <path
     id="path66"
     d="  M 355.26622,208.26502   C 355.26622,205.18584 357.78555,202.6665 360.86474,202.6665   L 512.50471,202.6665   C 515.62389,202.6665 518.10323,205.18584 518.10323,208.26502   L 518.10323,230.65911   C 518.10323,233.77829 515.62389,236.25763 512.50471,236.25763   L 360.86474,236.25763   C 357.78555,236.25763 355.26622,233.77829 355.26622,230.65911   z "
     clip-path="url(#clipEmfPath1)"
     style="fill:none;stroke:#000000;stroke-width:1.2796623px;stroke-linecap:butt;stroke-linejoin:miter;stroke-miterlimit:8;stroke-dasharray:none;stroke-opacity:1;" />
  <text
     id="text72"
     y="0.000000"
     x="0.000000"
     transform="matrix(1.000000,-0.000000,0.000000,1.000000,390.126705,226.640642)"
     style="font-size:18.562500px;font-style:normal;font-variant:normal;font-weight:400;font-stretch:Normal;line-height:125.000000%;letter-spacing:0px;word-spacing:0px;fill:#000000;fill-opacity:1;stroke:none;font-family:Arial;text-align:start;text-anchor:start;"
     xml:space="preserve"><tspan
       id="tspan70"
       y="0.000000"
       x="0.000000"><tspan
         id="tspan68"
         style="fill:#000000;font-size:18.562500px;font-style:normal;font-variant:normal;font-weight:400;font-stretch:Normal;font-family:Arial;"
         dy="0.000000"
         dx="0.000000">Embedding</tspan></tspan></text>
  <path
     id="path74"
     d="  M 133.24483,208.26502   C 133.24483,205.18584 135.76416,202.6665 138.84335,202.6665   L 290.48332,202.6665   C 293.6025,202.6665 296.08184,205.18584 296.08184,208.26502   L 296.08184,230.65911   C 296.08184,233.77829 293.6025,236.25763 290.48332,236.25763   L 138.84335,236.25763   C 135.76416,236.25763 133.24483,233.77829 133.24483,230.65911   z "
     style="fill:#ffffff;fill-rule:evenodd;fill-opacity:1;stroke:none;" />
  <path
     id="path76"
     d="  M 133.24483,208.26502   C 133.24483,205.18584 135.76416,202.6665 138.84335,202.6665   L 290.48332,202.6665   C 293.6025,202.6665 296.08184,205.18584 296.08184,208.26502   L 296.08184,230.65911   C 296.08184,233.77829 293.6025,236.25763 290.48332,236.25763   L 138.84335,236.25763   C 135.76416,236.25763 133.24483,233.77829 133.24483,230.65911   z "
     style="fill:none;stroke:#000000;stroke-width:1.2796623px;stroke-linecap:butt;stroke-linejoin:miter;stroke-miterlimit:8;stroke-dasharray:none;stroke-opacity:1;" />
  <text
     id="text82"
     y="0.000000"
     x="0.000000"
     transform="matrix(1.000000,-0.000000,0.000000,1.000000,167.906615,226.640642)"
     style="font-size:18.562500px;font-style:normal;font-variant:normal;font-weight:400;font-stretch:Normal;line-height:125.000000%;letter-spacing:0px;word-spacing:0px;fill:#000000;fill-opacity:1;stroke:none;font-family:Arial;text-align:start;text-anchor:start;"
     xml:space="preserve"><tspan
       id="tspan80"
       y="0.000000"
       x="0.000000"><tspan
         id="tspan78"
         style="fill:#000000;font-size:18.562500px;font-style:normal;font-variant:normal;font-weight:400;font-stretch:Normal;font-family:Arial;"
         dy="0.000000"
         dx="0.000000">Embedding</tspan></tspan></text>
  <text
     id="text88"
     y="0.000000"
     x="0.000000"
     transform="matrix(1.000000,-0.000000,0.000000,1.000000,188.203522,16.979776)"
     style="font-size:18.562500px;font-style:normal;font-variant:normal;font-weight:400;font-stretch:Normal;line-height:125.000000%;letter-spacing:0px;word-spacing:0px;fill:#000000;fill-opacity:1;stroke:none;font-family:Arial;text-align:start;text-anchor:start;"
     xml:space="preserve"><tspan
       id="tspan86"
       y="0.000000"
       x="0.000000"><tspan
         id="tspan84"
         style="fill:#000000;font-size:18.562500px;font-style:normal;font-variant:normal;font-weight:400;font-stretch:Normal;font-family:Arial;"
         dy="0.000000"
         dx="0.000000">6x</tspan></tspan></text>
  <text
     id="text94"
     y="0.000000"
     x="0.000000"
     transform="matrix(1.000000,-0.000000,0.000000,1.000000,215.833495,16.979776)"
     style="font-size:18.562500px;font-style:normal;font-variant:normal;font-weight:400;font-stretch:Normal;line-height:125.000000%;letter-spacing:0px;word-spacing:0px;fill:#000000;fill-opacity:1;stroke:none;font-family:Arial;text-align:start;text-anchor:start;"
     xml:space="preserve"><tspan
       id="tspan92"
       y="0.000000"
       x="0.000000"><tspan
         id="tspan90"
         style="fill:#000000;font-size:18.562500px;font-style:normal;font-variant:normal;font-weight:400;font-stretch:Normal;font-family:Arial;"
         dy="0.000000"
         dx="0.000000">24x</tspan></tspan></text>
  <text
     id="text100"
     y="0.000000"
     x="0.000000"
     transform="matrix(1.000000,-0.000000,0.000000,1.000000,411.060475,16.979776)"
     style="font-size:18.562500px;font-style:normal;font-variant:normal;font-weight:400;font-stretch:Normal;line-height:125.000000%;letter-spacing:0px;word-spacing:0px;fill:#000000;fill-opacity:1;stroke:none;font-family:Arial;text-align:start;text-anchor:start;"
     xml:space="preserve"><tspan
       id="tspan98"
       y="0.000000"
       x="0.000000"><tspan
         id="tspan96"
         style="fill:#000000;font-size:18.562500px;font-style:normal;font-variant:normal;font-weight:400;font-stretch:Normal;font-family:Arial;"
         dy="0.000000"
         dx="0.000000">6x</tspan></tspan></text>
  <text
     id="text106"
     y="0.000000"
     x="0.000000"
     transform="matrix(1.000000,-0.000000,0.000000,1.000000,443.855803,16.979776)"
     style="font-size:18.562500px;font-style:normal;font-variant:normal;font-weight:400;font-stretch:Normal;line-height:125.000000%;letter-spacing:0px;word-spacing:0px;fill:#000000;fill-opacity:1;stroke:none;font-family:Arial;text-align:start;text-anchor:start;"
     xml:space="preserve"><tspan
       id="tspan104"
       y="0.000000"
       x="0.000000"><tspan
         id="tspan102"
         style="fill:#000000;font-size:18.562500px;font-style:normal;font-variant:normal;font-weight:400;font-stretch:Normal;font-family:Arial;"
         dy="0.000000"
         dx="0.000000">1x</tspan></tspan></text>
  <text
     id="text112"
     y="0.000000"
     x="0.000000"
     transform="matrix(1.000000,-0.000000,0.000000,1.000000,154.972295,16.979776)"
     style="font-size:18.562500px;font-style:normal;font-variant:normal;font-weight:400;font-stretch:Normal;line-height:125.000000%;letter-spacing:0px;word-spacing:0px;fill:#000000;fill-opacity:1;stroke:none;font-family:Arial;text-align:start;text-anchor:start;"
     xml:space="preserve"><tspan
       id="tspan110"
       y="0.000000"
       x="0.000000"><tspan
         id="tspan108"
         style="fill:#000000;font-size:18.562500px;font-style:normal;font-variant:normal;font-weight:400;font-stretch:Normal;font-family:Arial;"
         dy="0.000000"
         dx="0.000000">1x</tspan></tspan></text>
  <path
     id="path114"
     d="  M 221.14162,29.592188   C 218.54231,29.592188 216.42287,31.711629 216.42287,34.310943   L 216.42287,181.67204   C 216.42287,184.27136 218.54231,186.35081 221.14162,186.35081   L 239.89667,186.35081   C 242.49599,186.35081 244.57544,184.27136 244.57544,181.67204   L 244.57544,34.310943   C 244.57544,31.711629 242.49599,29.592188 239.89667,29.592188   z "
     style="fill:#ffffff;fill-rule:evenodd;fill-opacity:1;stroke:none;" />
  <path
     id="path116"
     d="  M 221.14162,29.592188   C 218.54231,29.592188 216.42287,31.711629 216.42287,34.310943   L 216.42287,181.67204   C 216.42287,184.27136 218.54231,186.35081 221.14162,186.35081   L 239.89667,186.35081   C 242.49599,186.35081 244.57544,184.27136 244.57544,181.67204   L 244.57544,34.310943   C 244.57544,31.711629 242.49599,29.592188 239.89667,29.592188   z "
     style="fill:none;stroke:#000000;stroke-width:1.2796623px;stroke-linecap:butt;stroke-linejoin:miter;stroke-miterlimit:8;stroke-dasharray:none;stroke-opacity:1;" />
  <text
     id="text122"
     y="0.000000"
     x="0.000000"
     transform="matrix(0.000000,-1.000000,1.000000,0.000000,237.714437,156.577535)"
     style="font-size:18.562500px;font-style:normal;font-variant:normal;font-weight:400;font-stretch:Normal;line-height:125.000000%;letter-spacing:0px;word-spacing:0px;fill:#000000;fill-opacity:1;stroke:none;font-family:Arial;text-align:start;text-anchor:start;"
     xml:space="preserve"><tspan
       id="tspan120"
       y="0.000000"
       x="0.000000"><tspan
         id="tspan118"
         style="fill:#000000;font-size:18.562500px;font-style:normal;font-variant:normal;font-weight:400;font-stretch:Normal;font-family:Arial;"
         dy="0.000000"
         dx="0.000000">Obs: </tspan></tspan></text>
  <text
     id="text128"
     y="0.000000"
     x="0.000000"
     transform="matrix(0.000000,-1.000000,1.000000,0.000000,237.714437,112.109254)"
     style="font-size:18.562500px;font-style:normal;font-variant:normal;font-weight:400;font-stretch:Normal;line-height:125.000000%;letter-spacing:0px;word-spacing:0px;fill:#000000;fill-opacity:1;stroke:none;font-family:Arial;text-align:start;text-anchor:start;"
     xml:space="preserve"><tspan
       id="tspan126"
       y="0.000000"
       x="0.000000"><tspan
         id="tspan124"
         style="fill:#000000;font-size:18.562500px;font-style:normal;font-variant:normal;font-weight:400;font-stretch:Normal;font-family:Arial;"
         dy="0.000000"
         dx="0.000000">Scalar</tspan></tspan></text>
  <path
     id="path130"
     d="  M 188.43026,29.592188   C 185.87094,29.592188 183.79148,31.67164 183.79148,34.230964   L 183.79148,181.71203   C 183.79148,184.31135 185.87094,186.35081 188.43026,186.35081   L 206.98536,186.35081   C 209.58468,186.35081 211.62414,184.31135 211.62414,181.71203   L 211.62414,34.230964   C 211.62414,31.67164 209.58468,29.592188 206.98536,29.592188   z "
     style="fill:#ffffff;fill-rule:evenodd;fill-opacity:1;stroke:none;" />
  <path
     id="path132"
     d="  M 188.43026,29.592188   C 185.87094,29.592188 183.79148,31.67164 183.79148,34.230964   L 183.79148,181.71203   C 183.79148,184.31135 185.87094,186.35081 188.43026,186.35081   L 206.98536,186.35081   C 209.58468,186.35081 211.62414,184.31135 211.62414,181.71203   L 211.62414,34.230964   C 211.62414,31.67164 209.58468,29.592188 206.98536,29.592188   z "
     style="fill:none;stroke:#000000;stroke-width:1.2796623px;stroke-linecap:butt;stroke-linejoin:miter;stroke-miterlimit:8;stroke-dasharray:none;stroke-opacity:1;" />
  <text
     id="text138"
     y="0.000000"
     x="0.000000"
     transform="matrix(0.000000,-1.000000,1.000000,0.000000,204.919266,165.535209)"
     style="font-size:18.562500px;font-style:normal;font-variant:normal;font-weight:400;font-stretch:Normal;line-height:125.000000%;letter-spacing:0px;word-spacing:0px;fill:#000000;fill-opacity:1;stroke:none;font-family:Arial;text-align:start;text-anchor:start;"
     xml:space="preserve"><tspan
       id="tspan136"
       y="0.000000"
       x="0.000000"><tspan
         id="tspan134"
         style="fill:#000000;font-size:18.562500px;font-style:normal;font-variant:normal;font-weight:400;font-stretch:Normal;font-family:Arial;"
         dy="0.000000"
         dx="0.000000">Action: </tspan></tspan></text>
  <text
     id="text144"
     y="0.000000"
     x="0.000000"
     transform="matrix(0.000000,-1.000000,1.000000,0.000000,204.919266,103.471593)"
     style="font-size:18.562500px;font-style:normal;font-variant:normal;font-weight:400;font-stretch:Normal;line-height:125.000000%;letter-spacing:0px;word-spacing:0px;fill:#000000;fill-opacity:1;stroke:none;font-family:Arial;text-align:start;text-anchor:start;"
     xml:space="preserve"><tspan
       id="tspan142"
       y="0.000000"
       x="0.000000"><tspan
         id="tspan140"
         style="fill:#000000;font-size:18.562500px;font-style:normal;font-variant:normal;font-weight:400;font-stretch:Normal;font-family:Arial;"
         dy="0.000000"
         dx="0.000000">Scalar</tspan></tspan></text>
  <path
     id="path146"
     d="  M 155.15904,29.592188   C 152.59972,29.592188 150.52027,31.67164 150.52027,34.230964   L 150.52027,181.71203   C 150.52027,184.31135 152.59972,186.35081 155.15904,186.35081   L 173.71414,186.35081   C 176.31346,186.35081 178.35292,184.31135 178.35292,181.71203   L 178.35292,34.230964   C 178.35292,31.67164 176.31346,29.592188 173.71414,29.592188   z "
     style="fill:#ffffff;fill-rule:evenodd;fill-opacity:1;stroke:none;" />
  <path
     id="path148"
     d="  M 155.15904,29.592188   C 152.59972,29.592188 150.52027,31.67164 150.52027,34.230964   L 150.52027,181.71203   C 150.52027,184.31135 152.59972,186.35081 155.15904,186.35081   L 173.71414,186.35081   C 176.31346,186.35081 178.35292,184.31135 178.35292,181.71203   L 178.35292,34.230964   C 178.35292,31.67164 176.31346,29.592188 173.71414,29.592188   z "
     style="fill:none;stroke:#000000;stroke-width:1.2796623px;stroke-linecap:butt;stroke-linejoin:miter;stroke-miterlimit:8;stroke-dasharray:none;stroke-opacity:1;" />
  <text
     id="text154"
     y="0.000000"
     x="0.000000"
     transform="matrix(0.000000,-1.000000,1.000000,0.000000,171.688116,157.220725)"
     style="font-size:18.562500px;font-style:normal;font-variant:normal;font-weight:400;font-stretch:Normal;line-height:125.000000%;letter-spacing:0px;word-spacing:0px;fill:#000000;fill-opacity:1;stroke:none;font-family:Arial;text-align:start;text-anchor:start;"
     xml:space="preserve"><tspan
       id="tspan152"
       y="0.000000"
       x="0.000000"><tspan
         id="tspan150"
         style="fill:#000000;font-size:18.562500px;font-style:normal;font-variant:normal;font-weight:400;font-stretch:Normal;font-family:Arial;"
         dy="0.000000"
         dx="0.000000">Skill</tspan></tspan></text>
  <text
     id="text160"
     y="0.000000"
     x="0.000000"
     transform="matrix(0.000000,-1.000000,1.000000,0.000000,171.688116,122.669826)"
     style="font-size:18.562500px;font-style:normal;font-variant:normal;font-weight:400;font-stretch:Normal;line-height:125.000000%;letter-spacing:0px;word-spacing:0px;fill:#000000;fill-opacity:1;stroke:none;font-family:Arial;text-align:start;text-anchor:start;"
     xml:space="preserve"><tspan
       id="tspan158"
       y="0.000000"
       x="0.000000"><tspan
         id="tspan156"
         style="fill:#000000;font-size:18.562500px;font-style:normal;font-variant:normal;font-weight:400;font-stretch:Normal;font-family:Arial;"
         dy="0.000000"
         dx="0.000000">: </tspan></tspan></text>
  <text
     id="text166"
     y="0.000000"
     x="0.000000"
     transform="matrix(0.000000,-1.000000,1.000000,0.000000,171.688116,112.432528)"
     style="font-size:18.562500px;font-style:normal;font-variant:normal;font-weight:400;font-stretch:Normal;line-height:125.000000%;letter-spacing:0px;word-spacing:0px;fill:#000000;fill-opacity:1;stroke:none;font-family:Arial;text-align:start;text-anchor:start;"
     xml:space="preserve"><tspan
       id="tspan164"
       y="0.000000"
       x="0.000000"><tspan
         id="tspan162"
         style="fill:#000000;font-size:18.562500px;font-style:normal;font-variant:normal;font-weight:400;font-stretch:Normal;font-family:Arial;"
         dy="0.000000"
         dx="0.000000">Reach</tspan></tspan></text>
  <path
     id="path168"
     d="  M 255.29261,29.592188   C 252.73329,29.592188 250.65383,31.67164 250.65383,34.230964   L 250.65383,181.71203   C 250.65383,184.31135 252.73329,186.35081 255.29261,186.35081   L 273.84771,186.35081   C 276.44703,186.35081 278.48649,184.31135 278.48649,181.71203   L 278.48649,34.230964   C 278.48649,31.67164 276.44703,29.592188 273.84771,29.592188   z "
     style="fill:#ffffff;fill-rule:evenodd;fill-opacity:1;stroke:none;" />
  <path
     id="path170"
     d="  M 255.29261,29.592188   C 252.73329,29.592188 250.65383,31.67164 250.65383,34.230964   L 250.65383,181.71203   C 250.65383,184.31135 252.73329,186.35081 255.29261,186.35081   L 273.84771,186.35081   C 276.44703,186.35081 278.48649,184.31135 278.48649,181.71203   L 278.48649,34.230964   C 278.48649,31.67164 276.44703,29.592188 273.84771,29.592188   z "
     style="fill:none;stroke:#000000;stroke-width:1.2796623px;stroke-linecap:butt;stroke-linejoin:miter;stroke-miterlimit:8;stroke-dasharray:none;stroke-opacity:1;" />
  <text
     id="text176"
     y="0.000000"
     x="0.000000"
     transform="matrix(0.000000,-1.000000,1.000000,0.000000,271.783569,117.547818)"
     style="font-size:18.562500px;font-style:normal;font-variant:normal;font-weight:400;font-stretch:Normal;line-height:125.000000%;letter-spacing:0px;word-spacing:0px;fill:#000000;fill-opacity:1;stroke:none;font-family:Arial;text-align:start;text-anchor:start;"
     xml:space="preserve"><tspan
       id="tspan174"
       y="0.000000"
       x="0.000000"><tspan
         id="tspan172"
         style="fill:#000000;font-size:18.562500px;font-style:normal;font-variant:normal;font-weight:400;font-stretch:Normal;font-family:Arial;"
         dy="0.000000"
         dx="0.000000">…</tspan></tspan></text>
  <path
     id="path178"
     d="  M 165.27637,186.35081   L 165.27637,198.70755   L 163.95672,198.70755   L 163.95672,186.35081   L 165.27637,186.35081  z    M 167.27584,197.38789   L 164.59655,202.70649   L 161.95725,197.38789   L 167.27584,197.38789  z   "
     style="fill:#000000;fill-rule:nonzero;fill-opacity:1;stroke:#000000;stroke-width:0.039989445px;stroke-linecap:butt;stroke-linejoin:round;stroke-miterlimit:4;stroke-dasharray:none;stroke-opacity:1;" />
  <path
     id="path180"
     d="  M 198.54759,186.35081   L 198.54759,198.70755   L 197.22794,198.70755   L 197.22794,186.35081   L 198.54759,186.35081  z    M 200.54706,197.38789   L 197.86777,202.70649   L 195.22846,197.38789   L 200.54706,197.38789  z   "
     style="fill:#000000;fill-rule:nonzero;fill-opacity:1;stroke:#000000;stroke-width:0.039989445px;stroke-linecap:butt;stroke-linejoin:round;stroke-miterlimit:4;stroke-dasharray:none;stroke-opacity:1;" />
  <path
     id="path182"
     d="  M 229.85932,186.35081   L 229.85932,198.70755   L 231.17897,198.70755   L 231.17897,186.35081   L 229.85932,186.35081  z    M 227.85985,197.38789   L 230.49915,202.70649   L 233.17845,197.38789   L 227.85985,197.38789  z   "
     style="fill:#000000;fill-rule:nonzero;fill-opacity:1;stroke:#000000;stroke-width:0.039989445px;stroke-linecap:butt;stroke-linejoin:round;stroke-miterlimit:4;stroke-dasharray:none;stroke-opacity:1;" />
  <path
     id="path184"
     d="  M 264.09029,186.35081   L 264.09029,198.70755   L 265.40994,198.70755   L 265.40994,186.35081   L 264.09029,186.35081  z    M 262.09082,197.38789   L 264.73012,202.70649   L 267.40941,197.38789   L 262.09082,197.38789  z   "
     style="fill:#000000;fill-rule:nonzero;fill-opacity:1;stroke:#000000;stroke-width:0.039989445px;stroke-linecap:butt;stroke-linejoin:round;stroke-miterlimit:4;stroke-dasharray:none;stroke-opacity:1;" />
  <path
     id="path186"
     d="  M 444.04278,29.592188   C 441.48346,29.592188 439.40401,31.67164 439.40401,34.230964   L 439.40401,181.71203   C 439.40401,184.31135 441.48346,186.35081 444.04278,186.35081   L 462.59789,186.35081   C 465.1972,186.35081 467.23666,184.31135 467.23666,181.71203   L 467.23666,34.230964   C 467.23666,31.67164 465.1972,29.592188 462.59789,29.592188   z "
     style="fill:#ffffff;fill-rule:evenodd;fill-opacity:1;stroke:none;" />
  <path
     id="path188"
     d="  M 444.04278,29.592188   C 441.48346,29.592188 439.40401,31.67164 439.40401,34.230964   L 439.40401,181.71203   C 439.40401,184.31135 441.48346,186.35081 444.04278,186.35081   L 462.59789,186.35081   C 465.1972,186.35081 467.23666,184.31135 467.23666,181.71203   L 467.23666,34.230964   C 467.23666,31.67164 465.1972,29.592188 462.59789,29.592188   z "
     style="fill:none;stroke:#000000;stroke-width:1.2796623px;stroke-linecap:butt;stroke-linejoin:miter;stroke-miterlimit:8;stroke-dasharray:none;stroke-opacity:1;" />
  <text
     id="text194"
     y="0.000000"
     x="0.000000"
     transform="matrix(0.000000,-1.000000,1.000000,0.000000,460.571312,144.744096)"
     style="font-size:18.562500px;font-style:normal;font-variant:normal;font-weight:400;font-stretch:Normal;line-height:125.000000%;letter-spacing:0px;word-spacing:0px;fill:#000000;fill-opacity:1;stroke:none;font-family:Arial;text-align:start;text-anchor:start;"
     xml:space="preserve"><tspan
       id="tspan192"
       y="0.000000"
       x="0.000000"><tspan
         id="tspan190"
         style="fill:#000000;font-size:18.562500px;font-style:normal;font-variant:normal;font-weight:400;font-stretch:Normal;font-family:Arial;"
         dy="0.000000"
         dx="0.000000">Obs.: 2D</tspan></tspan></text>
  <path
     id="path196"
     d="  M 411.4114,29.592188   C 408.85207,29.592188 406.77262,31.67164 406.77262,34.230964   L 406.77262,181.71203   C 406.77262,184.31135 408.85207,186.35081 411.4114,186.35081   L 429.9665,186.35081   C 432.56581,186.35081 434.60528,184.31135 434.60528,181.71203   L 434.60528,34.230964   C 434.60528,31.67164 432.56581,29.592188 429.9665,29.592188   z "
     style="fill:#ffffff;fill-rule:evenodd;fill-opacity:1;stroke:none;" />
  <path
     id="path198"
     d="  M 411.4114,29.592188   C 408.85207,29.592188 406.77262,31.67164 406.77262,34.230964   L 406.77262,181.71203   C 406.77262,184.31135 408.85207,186.35081 411.4114,186.35081   L 429.9665,186.35081   C 432.56581,186.35081 434.60528,184.31135 434.60528,181.71203   L 434.60528,34.230964   C 434.60528,31.67164 432.56581,29.592188 429.9665,29.592188   z "
     style="fill:none;stroke:#000000;stroke-width:1.2796623px;stroke-linecap:butt;stroke-linejoin:miter;stroke-miterlimit:8;stroke-dasharray:none;stroke-opacity:1;" />
  <text
     id="text204"
     y="0.000000"
     x="0.000000"
     transform="matrix(0.000000,-1.000000,1.000000,0.000000,427.775985,165.535327)"
     style="font-size:18.562500px;font-style:normal;font-variant:normal;font-weight:400;font-stretch:Normal;line-height:125.000000%;letter-spacing:0px;word-spacing:0px;fill:#000000;fill-opacity:1;stroke:none;font-family:Arial;text-align:start;text-anchor:start;"
     xml:space="preserve"><tspan
       id="tspan202"
       y="0.000000"
       x="0.000000"><tspan
         id="tspan200"
         style="fill:#000000;font-size:18.562500px;font-style:normal;font-variant:normal;font-weight:400;font-stretch:Normal;font-family:Arial;"
         dy="0.000000"
         dx="0.000000">Action: </tspan></tspan></text>
  <text
     id="text210"
     y="0.000000"
     x="0.000000"
     transform="matrix(0.000000,-1.000000,1.000000,0.000000,427.775985,103.471690)"
     style="font-size:18.562500px;font-style:normal;font-variant:normal;font-weight:400;font-stretch:Normal;line-height:125.000000%;letter-spacing:0px;word-spacing:0px;fill:#000000;fill-opacity:1;stroke:none;font-family:Arial;text-align:start;text-anchor:start;"
     xml:space="preserve"><tspan
       id="tspan208"
       y="0.000000"
       x="0.000000"><tspan
         id="tspan206"
         style="fill:#000000;font-size:18.562500px;font-style:normal;font-variant:normal;font-weight:400;font-stretch:Normal;font-family:Arial;"
         dy="0.000000"
         dx="0.000000">Scalar</tspan></tspan></text>
  <path
     id="path212"
     d="  M 378.14018,29.592188   C 375.58086,29.592188 373.50141,31.67164 373.50141,34.230964   L 373.50141,181.71203   C 373.50141,184.31135 375.58086,186.35081 378.14018,186.35081   L 396.69528,186.35081   C 399.2946,186.35081 401.33406,184.31135 401.33406,181.71203   L 401.33406,34.230964   C 401.33406,31.67164 399.2946,29.592188 396.69528,29.592188   z "
     style="fill:#ffffff;fill-rule:evenodd;fill-opacity:1;stroke:none;" />
  <path
     id="path214"
     d="  M 378.14018,29.592188   C 375.58086,29.592188 373.50141,31.67164 373.50141,34.230964   L 373.50141,181.71203   C 373.50141,184.31135 375.58086,186.35081 378.14018,186.35081   L 396.69528,186.35081   C 399.2946,186.35081 401.33406,184.31135 401.33406,181.71203   L 401.33406,34.230964   C 401.33406,31.67164 399.2946,29.592188 396.69528,29.592188   z "
     style="fill:none;stroke:#000000;stroke-width:1.2796623px;stroke-linecap:butt;stroke-linejoin:miter;stroke-miterlimit:8;stroke-dasharray:none;stroke-opacity:1;" />
  <text
     id="text220"
     y="0.000000"
     x="0.000000"
     transform="matrix(0.000000,-1.000000,1.000000,0.000000,394.544913,163.615716)"
     style="font-size:18.562500px;font-style:normal;font-variant:normal;font-weight:400;font-stretch:Normal;line-height:125.000000%;letter-spacing:0px;word-spacing:0px;fill:#000000;fill-opacity:1;stroke:none;font-family:Arial;text-align:start;text-anchor:start;"
     xml:space="preserve"><tspan
       id="tspan218"
       y="0.000000"
       x="0.000000"><tspan
         id="tspan216"
         style="fill:#000000;font-size:18.562500px;font-style:normal;font-variant:normal;font-weight:400;font-stretch:Normal;font-family:Arial;"
         dy="0.000000"
         dx="0.000000">Skill</tspan></tspan></text>
  <text
     id="text226"
     y="0.000000"
     x="0.000000"
     transform="matrix(0.000000,-1.000000,1.000000,0.000000,394.544913,129.064837)"
     style="font-size:18.562500px;font-style:normal;font-variant:normal;font-weight:400;font-stretch:Normal;line-height:125.000000%;letter-spacing:0px;word-spacing:0px;fill:#000000;fill-opacity:1;stroke:none;font-family:Arial;text-align:start;text-anchor:start;"
     xml:space="preserve"><tspan
       id="tspan224"
       y="0.000000"
       x="0.000000"><tspan
         id="tspan222"
         style="fill:#000000;font-size:18.562500px;font-style:normal;font-variant:normal;font-weight:400;font-stretch:Normal;font-family:Arial;"
         dy="0.000000"
         dx="0.000000">: Position</tspan></tspan></text>
  <path
     id="path228"
     d="  M 476.99409,29.592188   C 474.43476,29.592188 472.35531,31.67164 472.35531,34.230964   L 472.35531,181.71203   C 472.35531,184.31135 474.43476,186.35081 476.99409,186.35081   L 495.54919,186.35081   C 498.1485,186.35081 500.18796,184.31135 500.18796,181.71203   L 500.18796,34.230964   C 500.18796,31.67164 498.1485,29.592188 495.54919,29.592188   z "
     style="fill:#ffffff;fill-rule:evenodd;fill-opacity:1;stroke:none;" />
  <path
     id="path230"
     d="  M 476.99409,29.592188   C 474.43476,29.592188 472.35531,31.67164 472.35531,34.230964   L 472.35531,181.71203   C 472.35531,184.31135 474.43476,186.35081 476.99409,186.35081   L 495.54919,186.35081   C 498.1485,186.35081 500.18796,184.31135 500.18796,181.71203   L 500.18796,34.230964   C 500.18796,31.67164 498.1485,29.592188 495.54919,29.592188   z "
     style="fill:none;stroke:#000000;stroke-width:1.2796623px;stroke-linecap:butt;stroke-linejoin:miter;stroke-miterlimit:8;stroke-dasharray:none;stroke-opacity:1;" />
  <text
     id="text236"
     y="0.000000"
     x="0.000000"
     transform="matrix(0.000000,-1.000000,1.000000,0.000000,493.366561,117.547916)"
     style="font-size:18.562500px;font-style:normal;font-variant:normal;font-weight:400;font-stretch:Normal;line-height:125.000000%;letter-spacing:0px;word-spacing:0px;fill:#000000;fill-opacity:1;stroke:none;font-family:Arial;text-align:start;text-anchor:start;"
     xml:space="preserve"><tspan
       id="tspan234"
       y="0.000000"
       x="0.000000"><tspan
         id="tspan232"
         style="fill:#000000;font-size:18.562500px;font-style:normal;font-variant:normal;font-weight:400;font-stretch:Normal;font-family:Arial;"
         dy="0.000000"
         dx="0.000000">…</tspan></tspan></text>
  <path
     id="path238"
     d="  M 387.93759,186.35081   L 387.93759,198.70755   L 386.61794,198.70755   L 386.61794,186.35081   L 387.93759,186.35081  z    M 389.93707,197.38789   L 387.25777,202.70649   L 384.61847,197.38789   L 389.93707,197.38789  z   "
     style="fill:#000000;fill-rule:nonzero;fill-opacity:1;stroke:#000000;stroke-width:0.039989445px;stroke-linecap:butt;stroke-linejoin:round;stroke-miterlimit:4;stroke-dasharray:none;stroke-opacity:1;" />
  <path
     id="path240"
     d="  M 421.20881,186.35081   L 421.20881,198.70755   L 419.88916,198.70755   L 419.88916,186.35081   L 421.20881,186.35081  z    M 423.20828,197.38789   L 420.52899,202.70649   L 417.88969,197.38789   L 423.20828,197.38789  z   "
     style="fill:#000000;fill-rule:nonzero;fill-opacity:1;stroke:#000000;stroke-width:0.039989445px;stroke-linecap:butt;stroke-linejoin:round;stroke-miterlimit:4;stroke-dasharray:none;stroke-opacity:1;" />
  <path
     id="path242"
     d="  M 452.84046,186.35081   L 452.84046,198.70755   L 454.16011,198.70755   L 454.16011,186.35081   L 452.84046,186.35081  z    M 450.84099,197.38789   L 453.48029,202.70649   L 456.15959,197.38789   L 450.84099,197.38789  z   "
     style="fill:#000000;fill-rule:nonzero;fill-opacity:1;stroke:#000000;stroke-width:0.039989445px;stroke-linecap:butt;stroke-linejoin:round;stroke-miterlimit:4;stroke-dasharray:none;stroke-opacity:1;" />
  <path
     id="path244"
     d="  M 485.47185,186.35081   L 485.47185,198.70755   L 486.7915,198.70755   L 486.7915,186.35081   L 485.47185,186.35081  z    M 483.47238,197.38789   L 486.11168,202.70649   L 488.79097,197.38789   L 483.47238,197.38789  z   "
     style="fill:#000000;fill-rule:nonzero;fill-opacity:1;stroke:#000000;stroke-width:0.039989445px;stroke-linecap:butt;stroke-linejoin:round;stroke-miterlimit:4;stroke-dasharray:none;stroke-opacity:1;" />
  <text
     id="text250"
     y="0.000000"
     x="0.000000"
     transform="matrix(1.000000,-0.000000,0.000000,1.000000,377.829560,16.979776)"
     style="font-size:18.562500px;font-style:normal;font-variant:normal;font-weight:400;font-stretch:Normal;line-height:125.000000%;letter-spacing:0px;word-spacing:0px;fill:#000000;fill-opacity:1;stroke:none;font-family:Arial;text-align:start;text-anchor:start;"
     xml:space="preserve"><tspan
       id="tspan248"
       y="0.000000"
       x="0.000000"><tspan
         id="tspan246"
         style="fill:#000000;font-size:18.562500px;font-style:normal;font-variant:normal;font-weight:400;font-stretch:Normal;font-family:Arial;"
         dy="0.000000"
         dx="0.000000">1x</tspan></tspan></text>
  <path
     id="path252"
     d="  M 200.3871,268.5691   C 199.90723,260.73117 205.86566,254.01295 213.6636,253.53307   C 221.50153,253.0532 228.25975,258.97164 228.73962,266.80957   C 229.21949,274.6475 223.26107,281.36573 215.42313,281.8456   C 207.62519,282.32547 200.86698,276.36705 200.3871,268.5691   z "
     style="fill:#ffffff;fill-rule:evenodd;fill-opacity:1;stroke:none;" />
  <path
     id="path254"
     d="  M 200.3871,268.5691   C 199.90723,260.73117 205.86566,254.01295 213.6636,253.53307   C 221.50153,253.0532 228.25975,258.97164 228.73962,266.80957   C 229.21949,274.6475 223.26107,281.36573 215.42313,281.8456   C 207.62519,282.32547 200.86698,276.36705 200.3871,268.5691  "
     style="fill:none;stroke:#000000;stroke-width:1.3196516px;stroke-linecap:butt;stroke-linejoin:miter;stroke-miterlimit:8;stroke-dasharray:none;stroke-opacity:1;" />
  <path
     id="path256"
     d="  M 165.07642,235.77776   L 197.94775,265.36995   L 197.06798,266.3297   L 164.15667,236.7775   L 165.07642,235.77776  z    M 198.30765,262.97058   L 200.50707,268.52912   L 194.74859,266.92954   L 198.30765,262.97058  z   "
     style="fill:#000000;fill-rule:nonzero;fill-opacity:1;stroke:#000000;stroke-width:0.039989445px;stroke-linecap:butt;stroke-linejoin:round;stroke-miterlimit:10;stroke-dasharray:none;stroke-opacity:1;" />
  <path
     id="path258"
     d="  M 198.54759,236.09768   L 203.62625,254.21289   L 202.34659,254.5728   L 197.22794,236.45758   L 198.54759,236.09768  z    M 205.18584,252.37338   L 204.06613,258.25183   L 200.06719,253.85299   L 205.18584,252.37338  z   "
     style="fill:#000000;fill-rule:nonzero;fill-opacity:1;stroke:#000000;stroke-width:0.039989445px;stroke-linecap:butt;stroke-linejoin:round;stroke-miterlimit:10;stroke-dasharray:none;stroke-opacity:1;" />
  <path
     id="path260"
     d="  M 229.73935,236.05769   L 224.38077,253.01321   L 225.66043,253.41311   L 231.01902,236.49757   L 229.73935,236.05769  z    M 222.86117,251.13371   L 223.78093,257.01216   L 227.93983,252.73329   L 222.86117,251.13371  z   "
     style="fill:#000000;fill-rule:nonzero;fill-opacity:1;stroke:#000000;stroke-width:0.039989445px;stroke-linecap:butt;stroke-linejoin:round;stroke-miterlimit:10;stroke-dasharray:none;stroke-opacity:1;" />
  <path
     id="path262"
     d="  M 264.0503,235.77776   L 231.21896,263.69039   L 232.05874,264.69013   L 264.89008,236.7775   L 264.0503,235.77776  z    M 230.93904,261.29103   L 228.57966,266.76958   L 234.37813,265.36995   L 230.93904,261.29103  z   "
     style="fill:#000000;fill-rule:nonzero;fill-opacity:1;stroke:#000000;stroke-width:0.039989445px;stroke-linecap:butt;stroke-linejoin:round;stroke-miterlimit:10;stroke-dasharray:none;stroke-opacity:1;" />
  <text
     id="text268"
     y="0.000000"
     x="0.000000"
     transform="matrix(1.000000,-0.000000,0.000000,1.000000,204.033797,282.222142)"
     style="font-size:42.562500px;font-style:normal;font-variant:normal;font-weight:400;font-stretch:Normal;line-height:125.000000%;letter-spacing:0px;word-spacing:0px;fill:#000000;fill-opacity:1;stroke:none;font-family:Calibri;text-align:start;text-anchor:start;"
     xml:space="preserve"><tspan
       id="tspan266"
       y="0.000000"
       x="0.000000"><tspan
         id="tspan264"
         style="fill:#000000;font-size:42.562500px;font-style:normal;font-variant:normal;font-weight:400;font-stretch:Normal;font-family:Calibri;"
         dy="0.000000"
         dx="0.000000">+</tspan></tspan></text>
  <path
     id="path270"
     d="  M 422.60844,268.5691   C 422.12857,260.73117 428.087,254.01295 435.88494,253.53307   C 443.72287,253.0532 450.48109,258.97164 450.96096,266.80957   C 451.44083,274.6475 445.4824,281.36573 437.64447,281.8456   C 429.80654,282.32547 423.08832,276.36705 422.60844,268.5691   z "
     style="fill:#ffffff;fill-rule:evenodd;fill-opacity:1;stroke:none;" />
  <path
     id="path272"
     d="  M 422.60844,268.5691   C 422.12857,260.73117 428.087,254.01295 435.88494,253.53307   C 443.72287,253.0532 450.48109,258.97164 450.96096,266.80957   C 451.44083,274.6475 445.4824,281.36573 437.64447,281.8456   C 429.80654,282.32547 423.08832,276.36705 422.60844,268.5691  "
     style="fill:none;stroke:#000000;stroke-width:1.3196516px;stroke-linecap:butt;stroke-linejoin:miter;stroke-miterlimit:8;stroke-dasharray:none;stroke-opacity:1;" />
  <path
     id="path274"
     d="  M 387.09782,235.77776   L 419.96914,265.36995   L 419.08937,266.3297   L 386.17806,236.7775   L 387.09782,235.77776  z    M 420.32904,262.97058   L 422.52846,268.52912   L 416.76998,266.92954   L 420.32904,262.97058  z   "
     style="fill:#000000;fill-rule:nonzero;fill-opacity:1;stroke:#000000;stroke-width:0.039989445px;stroke-linecap:butt;stroke-linejoin:round;stroke-miterlimit:10;stroke-dasharray:none;stroke-opacity:1;" />
  <path
     id="path276"
     d="  M 420.56898,236.09768   L 425.64764,254.21289   L 424.36798,254.5728   L 419.24933,236.45758   L 420.56898,236.09768  z    M 427.20723,252.37338   L 426.08752,258.25183   L 422.08858,253.85299   L 427.20723,252.37338  z   "
     style="fill:#000000;fill-rule:nonzero;fill-opacity:1;stroke:#000000;stroke-width:0.039989445px;stroke-linecap:butt;stroke-linejoin:round;stroke-miterlimit:10;stroke-dasharray:none;stroke-opacity:1;" />
  <path
     id="path278"
     d="  M 452.08066,236.05769   L 446.72208,253.01321   L 448.00174,253.41311   L 453.36033,236.49757   L 452.08066,236.05769  z    M 445.20248,251.13371   L 446.12224,257.01216   L 450.28114,252.73329   L 445.20248,251.13371  z   "
     style="fill:#000000;fill-rule:nonzero;fill-opacity:1;stroke:#000000;stroke-width:0.039989445px;stroke-linecap:butt;stroke-linejoin:round;stroke-miterlimit:10;stroke-dasharray:none;stroke-opacity:1;" />
  <path
     id="path280"
     d="  M 486.39161,235.77776   L 453.56027,263.69039   L 454.40005,264.69013   L 487.23138,236.7775   L 486.39161,235.77776  z    M 453.28035,261.29103   L 450.92097,266.76958   L 456.71944,265.36995   L 453.28035,261.29103  z   "
     style="fill:#000000;fill-rule:nonzero;fill-opacity:1;stroke:#000000;stroke-width:0.039989445px;stroke-linecap:butt;stroke-linejoin:round;stroke-miterlimit:10;stroke-dasharray:none;stroke-opacity:1;" />
  <text
     id="text286"
     y="0.000000"
     x="0.000000"
     transform="matrix(1.000000,-0.000000,0.000000,1.000000,426.253887,282.222298)"
     style="font-size:42.562500px;font-style:normal;font-variant:normal;font-weight:400;font-stretch:Normal;line-height:125.000000%;letter-spacing:0px;word-spacing:0px;fill:#000000;fill-opacity:1;stroke:none;font-family:Calibri;text-align:start;text-anchor:start;"
     xml:space="preserve"><tspan
       id="tspan284"
       y="0.000000"
       x="0.000000"><tspan
         id="tspan282"
         style="fill:#000000;font-size:42.562500px;font-style:normal;font-variant:normal;font-weight:400;font-stretch:Normal;font-family:Calibri;"
         dy="0.000000"
         dx="0.000000">+</tspan></tspan></text>
  <path
     id="path288"
     d="  M 215.66307,281.04581   L 274.56752,297.08158   L 274.20762,298.36124   L 215.30317,282.36546   L 215.66307,281.04581  z    M 273.80772,294.80218   L 278.24655,298.76114   L 272.40809,299.96082   L 273.80772,294.80218  z   "
     style="fill:#000000;fill-rule:nonzero;fill-opacity:1;stroke:#000000;stroke-width:0.039989445px;stroke-linecap:butt;stroke-linejoin:round;stroke-miterlimit:4;stroke-dasharray:none;stroke-opacity:1;" />
  <path
     id="path290"
     d="  M 437.52451,281.04581   L 376.90051,297.12157   L 377.22042,298.40123   L 437.88441,282.36546   L 437.52451,281.04581  z    M 377.66031,294.84217   L 373.18149,298.76114   L 379.01995,300.00081   L 377.66031,294.84217  z   "
     style="fill:#000000;fill-rule:nonzero;fill-opacity:1;stroke:#000000;stroke-width:0.039989445px;stroke-linecap:butt;stroke-linejoin:round;stroke-miterlimit:4;stroke-dasharray:none;stroke-opacity:1;" />
  <path
     id="path292"
     d="  M 326.19389,315.91661   L 326.19389,326.75375   L 324.87424,326.75375   L 324.87424,315.91661   L 326.19389,315.91661  z    M 328.19337,325.43409   L 325.51407,330.75269   L 322.87477,325.43409   L 328.19337,325.43409  z   "
     style="fill:#000000;fill-rule:nonzero;fill-opacity:1;stroke:#000000;stroke-width:0.039989445px;stroke-linecap:butt;stroke-linejoin:round;stroke-miterlimit:4;stroke-dasharray:none;stroke-opacity:1;" />
  <path
     id="path294"
     d="  M 326.19389,364.22385   L 326.19389,375.06099   L 324.87424,375.06099   L 324.87424,364.22385   L 326.19389,364.22385  z    M 328.19337,373.74134   L 325.51407,379.05994   L 322.87477,373.74134   L 328.19337,373.74134  z   "
     style="fill:#000000;fill-rule:nonzero;fill-opacity:1;stroke:#000000;stroke-width:0.039989445px;stroke-linecap:butt;stroke-linejoin:round;stroke-miterlimit:4;stroke-dasharray:none;stroke-opacity:1;" />
  <path
     id="path296"
     d="  M 133.24483,394.53585   C 133.24483,386.09808 140.08302,379.25989 148.52079,379.25989   L 502.86726,379.25989   C 511.30503,379.25989 518.10323,386.09808 518.10323,394.53585   L 518.10323,455.51976   C 518.10323,463.95753 511.30503,470.75573 502.86726,470.75573   L 148.52079,470.75573   C 140.08302,470.75573 133.24483,463.95753 133.24483,455.51976   z "
     style="fill:#ffffff;fill-rule:evenodd;fill-opacity:1;stroke:none;" />
  <path
     id="path298"
     d="  M 132.605,455.51976   L 132.605,445.28246   L 133.88466,445.28246   L 133.88466,455.51976   L 132.605,455.51976  z    M 132.605,441.44347   L 132.605,431.20617   L 133.88466,431.20617   L 133.88466,441.44347   L 132.605,441.44347  z    M 132.605,427.36719   L 132.605,417.12989   L 133.88466,417.12989   L 133.88466,427.36719   L 132.605,427.36719  z    M 132.605,413.2909   L 132.605,403.0536   L 133.88466,403.0536   L 133.88466,413.2909   L 132.605,413.2909  z    M 132.605,399.21462   L 132.605,394.53585   L 132.72496,392.89629   L 132.9649,391.3367   L 133.32481,389.8171   L 133.68471,388.89734   L 134.88439,389.33723   L 134.52449,390.21699   L 134.56448,390.13701   L 134.20457,391.61662   L 134.20457,391.53664   L 133.96464,393.05624   L 133.96464,393.01625   L 133.88466,394.57584   L 133.88466,394.53585   L 133.88466,399.21462   L 132.605,399.21462  z    M 135.6042,385.33828   L 137.28376,383.29882   L 139.64314,381.33934   L 140.9228,380.53955   L 142.32243,379.89972   L 143.80204,379.33986   L 144.08197,379.25989   L 144.40188,380.49956   L 144.12196,380.57954   L 144.20193,380.53955   L 142.8023,381.05941   L 142.84229,381.05941   L 141.52264,381.69924   L 141.56263,381.65925   L 140.32296,382.41905   L 140.40294,382.37906   L 138.16353,384.25857   L 138.24351,384.17859   L 136.56395,386.17806   L 135.6042,385.33828  z    M 148.00093,378.66004   L 148.52079,378.62005   L 158.27822,378.62005   L 158.27822,379.89972   L 148.52079,379.89972   L 148.56078,379.89972   L 148.04092,379.93971   L 148.00093,378.66004  z    M 162.11721,378.62005   L 172.3545,378.62005   L 172.3545,379.89972   L 162.11721,379.89972   L 162.11721,378.62005  z    M 176.19349,378.62005   L 186.43079,378.62005   L 186.43079,379.89972   L 176.19349,379.89972   L 176.19349,378.62005  z    M 190.26977,378.62005   L 200.50707,378.62005   L 200.50707,379.89972   L 190.26977,379.89972   L 190.26977,378.62005  z    M 204.34606,378.62005   L 214.58336,378.62005   L 214.58336,379.89972   L 204.34606,379.89972   L 204.34606,378.62005  z    M 218.42234,378.62005   L 228.65964,378.62005   L 228.65964,379.89972   L 218.42234,379.89972   L 218.42234,378.62005  z    M 232.49863,378.62005   L 242.73592,378.62005   L 242.73592,379.89972   L 232.49863,379.89972   L 232.49863,378.62005  z    M 246.57491,378.62005   L 256.81221,378.62005   L 256.81221,379.89972   L 246.57491,379.89972   L 246.57491,378.62005  z    M 260.6512,378.62005   L 270.88849,378.62005   L 270.88849,379.89972   L 260.6512,379.89972   L 260.6512,378.62005  z    M 274.72748,378.62005   L 284.96478,378.62005   L 284.96478,379.89972   L 274.72748,379.89972   L 274.72748,378.62005  z    M 288.80376,378.62005   L 299.04106,378.62005   L 299.04106,379.89972   L 288.80376,379.89972   L 288.80376,378.62005  z    M 302.88005,378.62005   L 313.11735,378.62005   L 313.11735,379.89972   L 302.88005,379.89972   L 302.88005,378.62005  z    M 316.95633,378.62005   L 327.19363,378.62005   L 327.19363,379.89972   L 316.95633,379.89972   L 316.95633,378.62005  z    M 331.03262,378.62005   L 341.26991,378.62005   L 341.26991,379.89972   L 331.03262,379.89972   L 331.03262,378.62005  z    M 345.1089,378.62005   L 355.3462,378.62005   L 355.3462,379.89972   L 345.1089,379.89972   L 345.1089,378.62005  z    M 359.18518,378.62005   L 369.42248,378.62005   L 369.42248,379.89972   L 359.18518,379.89972   L 359.18518,378.62005  z    M 373.26147,378.62005   L 383.49877,378.62005   L 383.49877,379.89972   L 373.26147,379.89972   L 373.26147,378.62005  z    M 387.33775,378.62005   L 397.57505,378.62005   L 397.57505,379.89972   L 387.33775,379.89972   L 387.33775,378.62005  z    M 401.41404,378.62005   L 411.65134,378.62005   L 411.65134,379.89972   L 401.41404,379.89972   L 401.41404,378.62005  z    M 415.49032,378.62005   L 425.72762,378.62005   L 425.72762,379.89972   L 415.49032,379.89972   L 415.49032,378.62005  z    M 429.56661,378.62005   L 439.8039,378.62005   L 439.8039,379.89972   L 429.56661,379.89972   L 429.56661,378.62005  z    M 443.64289,378.62005   L 453.88019,378.62005   L 453.88019,379.89972   L 443.64289,379.89972   L 443.64289,378.62005  z    M 457.71917,378.62005   L 467.95647,378.62005   L 467.95647,379.89972   L 457.71917,379.89972   L 457.71917,378.62005  z    M 471.79546,378.62005   L 482.03276,378.62005   L 482.03276,379.89972   L 471.79546,379.89972   L 471.79546,378.62005  z    M 485.87174,378.62005   L 496.10904,378.62005   L 496.10904,379.89972   L 485.87174,379.89972   L 485.87174,378.62005  z    M 499.94803,378.62005   L 502.90725,378.62005   L 504.50682,378.74002   L 506.1064,378.97996   L 507.626,379.33986   L 509.06562,379.89972   L 510.18532,380.41958   L 509.62547,381.57927   L 508.54576,381.05941   L 508.58575,381.05941   L 507.18612,380.53955   L 507.2661,380.57954   L 505.82648,380.21963   L 505.86646,380.21963   L 504.34687,379.9797   L 504.42684,379.9797   L 502.86726,379.89972   L 502.86726,379.89972   L 499.94803,379.89972   L 499.94803,378.62005  z    M 513.42447,382.73897   L 514.10429,383.29882   L 516.06377,385.6582   L 516.86356,386.93786   L 517.50339,388.33749   L 518.06325,389.8171   L 518.46314,391.3367   L 518.54312,391.89655   L 517.26346,392.05651   L 517.18348,391.53664   L 517.18348,391.61662   L 516.82357,390.13701   L 516.82357,390.21699   L 516.30371,388.81736   L 516.3437,388.85735   L 515.70387,387.5377   L 515.74386,387.57769   L 514.98406,386.33802   L 515.02405,386.418   L 513.18453,384.17859   L 513.26451,384.25857   L 512.58469,383.69871   L 513.42447,382.73897  z    M 518.74307,395.81552   L 518.74307,406.05281   L 517.4634,406.05281   L 517.4634,395.81552   L 518.74307,395.81552  z    M 518.74307,409.8918   L 518.74307,420.1291   L 517.4634,420.1291   L 517.4634,409.8918   L 518.74307,409.8918  z    M 518.74307,423.96808   L 518.74307,434.20538   L 517.4634,434.20538   L 517.4634,423.96808   L 518.74307,423.96808  z    M 518.74307,438.04437   L 518.74307,448.28167   L 517.4634,448.28167   L 517.4634,438.04437   L 518.74307,438.04437  z    M 518.74307,452.12065   L 518.74307,455.55974   L 518.66309,457.15932   L 518.46314,458.7589   L 518.06325,460.2785   L 517.50339,461.71812   L 517.18348,462.39794   L 516.02378,461.83809   L 516.3437,461.19826   L 516.30371,461.23825   L 516.82357,459.83861   L 516.82357,459.91859   L 517.18348,458.43898   L 517.18348,458.51896   L 517.42341,456.99936   L 517.38342,457.07934   L 517.4634,455.51976   L 517.4634,455.51976   L 517.4634,452.12065   L 518.74307,452.12065  z    M 514.98406,465.71706   L 514.10429,466.75679   L 511.7849,468.71627   L 510.46525,469.51606   L 509.06562,470.15589   L 507.626,470.71574   L 506.1064,471.11564   L 505.98643,471.11564   L 505.82648,469.83598   L 505.86646,469.83598   L 505.78649,469.83598   L 507.2661,469.47607   L 507.18612,469.47607   L 508.58575,468.95621   L 508.54576,468.9962   L 509.86541,468.35637   L 509.82542,468.39636   L 511.06509,467.63656   L 510.98511,467.67655   L 513.26451,465.83703   L 513.18453,465.91701   L 514.02431,464.87728   L 514.98406,465.71706  z    M 502.10746,471.39556   L 491.87016,471.39556   L 491.87016,470.1159   L 502.10746,470.1159   L 502.10746,471.39556  z    M 488.03117,471.39556   L 477.79388,471.39556   L 477.79388,470.1159   L 488.03117,470.1159   L 488.03117,471.39556  z    M 473.95489,471.39556   L 463.71759,471.39556   L 463.71759,470.1159   L 473.95489,470.1159   L 473.95489,471.39556  z    M 459.8786,471.39556   L 449.64131,471.39556   L 449.64131,470.1159   L 459.8786,470.1159   L 459.8786,471.39556  z    M 445.80232,471.39556   L 435.56502,471.39556   L 435.56502,470.1159   L 445.80232,470.1159   L 445.80232,471.39556  z    M 431.72604,471.39556   L 421.48874,471.39556   L 421.48874,470.1159   L 431.72604,470.1159   L 431.72604,471.39556  z    M 417.64975,471.39556   L 407.41245,471.39556   L 407.41245,470.1159   L 417.64975,470.1159   L 417.64975,471.39556  z    M 403.57347,471.39556   L 393.33617,471.39556   L 393.33617,470.1159   L 403.57347,470.1159   L 403.57347,471.39556  z    M 389.49718,471.39556   L 379.25989,471.39556   L 379.25989,470.1159   L 389.49718,470.1159   L 389.49718,471.39556  z    M 375.4209,471.39556   L 365.1836,471.39556   L 365.1836,470.1159   L 375.4209,470.1159   L 375.4209,471.39556  z    M 361.34461,471.39556   L 351.10732,471.39556   L 351.10732,470.1159   L 361.34461,470.1159   L 361.34461,471.39556  z    M 347.26833,471.39556   L 337.03103,471.39556   L 337.03103,470.1159   L 347.26833,470.1159   L 347.26833,471.39556  z    M 333.19205,471.39556   L 322.95475,471.39556   L 322.95475,470.1159   L 333.19205,470.1159   L 333.19205,471.39556  z    M 319.11576,471.39556   L 308.87846,471.39556   L 308.87846,470.1159   L 319.11576,470.1159   L 319.11576,471.39556  z    M 305.03948,471.39556   L 294.80218,471.39556   L 294.80218,470.1159   L 305.03948,470.1159   L 305.03948,471.39556  z    M 290.96319,471.39556   L 280.7259,471.39556   L 280.7259,470.1159   L 290.96319,470.1159   L 290.96319,471.39556  z    M 276.88691,471.39556   L 266.64961,471.39556   L 266.64961,470.1159   L 276.88691,470.1159   L 276.88691,471.39556  z    M 262.81063,471.39556   L 252.57333,471.39556   L 252.57333,470.1159   L 262.81063,470.1159   L 262.81063,471.39556  z    M 248.73434,471.39556   L 238.49704,471.39556   L 238.49704,470.1159   L 248.73434,470.1159   L 248.73434,471.39556  z    M 234.65806,471.39556   L 224.42076,471.39556   L 224.42076,470.1159   L 234.65806,470.1159   L 234.65806,471.39556  z    M 220.58177,471.39556   L 210.34447,471.39556   L 210.34447,470.1159   L 220.58177,470.1159   L 220.58177,471.39556  z    M 206.50549,471.39556   L 196.26819,471.39556   L 196.26819,470.1159   L 206.50549,470.1159   L 206.50549,471.39556  z    M 192.4292,471.39556   L 182.19191,471.39556   L 182.19191,470.1159   L 192.4292,470.1159   L 192.4292,471.39556  z    M 178.35292,471.39556   L 168.11562,471.39556   L 168.11562,470.1159   L 178.35292,470.1159   L 178.35292,471.39556  z    M 164.27664,471.39556   L 154.03934,471.39556   L 154.03934,470.1159   L 164.27664,470.1159   L 164.27664,471.39556  z    M 150.20035,471.39556   L 148.52079,471.39556   L 146.88123,471.31559   L 145.32164,471.11564   L 143.80204,470.71574   L 142.32243,470.15589   L 140.9228,469.51606   L 140.08302,468.95621   L 140.72285,467.87649   L 141.56263,468.39636   L 141.52264,468.35637   L 142.84229,468.9962   L 142.8023,468.95621   L 144.20193,469.47607   L 144.12196,469.47607   L 145.60157,469.83598   L 145.52159,469.83598   L 147.04119,470.07591   L 147.0012,470.03592   L 148.56078,470.1159   L 148.52079,470.1159   L 150.20035,470.1159   L 150.20035,471.39556  z    M 136.96385,466.39688   L 135.32428,464.4374   L 134.52449,463.11775   L 133.88466,461.71812   L 133.32481,460.2785   L 132.9649,458.7589   L 132.72496,457.15932   L 132.68497,456.83941   L 133.96464,456.79942   L 133.96464,457.07934   L 133.96464,456.99936   L 134.20457,458.51896   L 134.20457,458.47897   L 134.56448,459.91859   L 134.52449,459.83861   L 135.04435,461.23825   L 135.04435,461.19826   L 135.68418,462.51791   L 135.64419,462.47792   L 136.40399,463.71759   L 136.364,463.63761   L 137.96358,465.55711   L 136.96385,466.39688  z   "
     clip-path="url(#clipEmfPath1)"
     style="fill:#000000;fill-rule:nonzero;fill-opacity:1;stroke:#000000;stroke-width:0.039989445px;stroke-linecap:butt;stroke-linejoin:round;stroke-miterlimit:4;stroke-dasharray:none;stroke-opacity:1;" />
  <text
     id="text304"
     y="0.000000"
     x="0.000000"
     transform="matrix(1.000000,-0.000000,0.000000,1.000000,250.198173,280.511460)"
     style="font-size:18.562500px;font-style:normal;font-variant:normal;font-weight:400;font-stretch:Normal;line-height:125.000000%;letter-spacing:0px;word-spacing:0px;fill:#000000;fill-opacity:1;stroke:none;font-family:Arial;text-align:start;text-anchor:start;"
     xml:space="preserve"><tspan
       id="tspan302"
       y="0.000000"
       x="0.000000"><tspan
         id="tspan300"
         style="fill:#000000;font-size:18.562500px;font-style:normal;font-variant:normal;font-weight:400;font-stretch:Normal;font-family:Arial;"
         dy="0.000000"
         dx="0.000000">h</tspan></tspan></text>
  <text
     id="text310"
     y="0.000000"
     x="0.000000"
     transform="matrix(1.000000,-0.000000,0.000000,1.000000,260.435471,284.990278)"
     style="font-size:12.500000px;font-style:normal;font-variant:normal;font-weight:400;font-stretch:Normal;line-height:125.000000%;letter-spacing:0px;word-spacing:0px;fill:#000000;fill-opacity:1;stroke:none;font-family:Arial;text-align:start;text-anchor:start;"
     xml:space="preserve"><tspan
       id="tspan308"
       y="0.000000"
       x="0.000000"><tspan
         id="tspan306"
         style="fill:#000000;font-size:12.500000px;font-style:normal;font-variant:normal;font-weight:400;font-stretch:Normal;font-family:Arial;"
         dy="0.000000"
         dx="0.000000">1</tspan></tspan></text>
  <text
     id="text316"
     y="0.000000"
     x="0.000000"
     transform="matrix(1.000000,-0.000000,0.000000,1.000000,374.928841,280.511460)"
     style="font-size:18.562500px;font-style:normal;font-variant:normal;font-weight:400;font-stretch:Normal;line-height:125.000000%;letter-spacing:0px;word-spacing:0px;fill:#000000;fill-opacity:1;stroke:none;font-family:Arial;text-align:start;text-anchor:start;"
     xml:space="preserve"><tspan
       id="tspan314"
       y="0.000000"
       x="0.000000"><tspan
         id="tspan312"
         style="fill:#000000;font-size:18.562500px;font-style:normal;font-variant:normal;font-weight:400;font-stretch:Normal;font-family:Arial;"
         dy="0.000000"
         dx="0.000000">h</tspan></tspan></text>
  <text
     id="text322"
     y="0.000000"
     x="0.000000"
     transform="matrix(1.000000,-0.000000,0.000000,1.000000,385.166139,284.990278)"
     style="font-size:12.500000px;font-style:normal;font-variant:normal;font-weight:400;font-stretch:Normal;line-height:125.000000%;letter-spacing:0px;word-spacing:0px;fill:#000000;fill-opacity:1;stroke:none;font-family:Arial;text-align:start;text-anchor:start;"
     xml:space="preserve"><tspan
       id="tspan320"
       y="0.000000"
       x="0.000000"><tspan
         id="tspan318"
         style="fill:#000000;font-size:12.500000px;font-style:normal;font-variant:normal;font-weight:400;font-stretch:Normal;font-family:Arial;"
         dy="0.000000"
         dx="0.000000">2</tspan></tspan></text>
  <text
     id="text328"
     y="0.000000"
     x="0.000000"
     transform="matrix(1.000000,-0.000000,0.000000,1.000000,135.349896,456.574711)"
     style="font-size:18.562500px;font-style:normal;font-variant:normal;font-weight:400;font-stretch:Normal;line-height:125.000000%;letter-spacing:0px;word-spacing:0px;fill:#000000;fill-opacity:1;stroke:none;font-family:Arial;text-align:start;text-anchor:start;"
     xml:space="preserve"><tspan
       id="tspan326"
       y="0.000000"
       x="0.000000"><tspan
         id="tspan324"
         style="fill:#000000;font-size:18.562500px;font-style:normal;font-variant:normal;font-weight:400;font-stretch:Normal;font-family:Arial;"
         dy="0.000000"
         dx="0.000000">Learning_rate</tspan></tspan></text>
  <path
     id="path330"
     d="  M 162.99697,420.52899   L 233.93825,420.52899  "
     style="fill:none;stroke:#000000;stroke-width:1.2796623px;stroke-linecap:butt;stroke-linejoin:miter;stroke-miterlimit:8;stroke-dasharray:none;stroke-opacity:1;" />
  <path
     id="path332"
     d="  M 215.14321,420.52899   L 215.66307,420.52899   L 216.14294,420.489   C 216.3029,420.44901 216.50285,420.40902 216.66281,420.36903   C 216.82276,420.32904 216.98272,420.28906 217.14268,420.20908   C 217.30264,420.1291 217.4626,420.04912 217.66254,419.92915   C 217.8225,419.80918 217.98246,419.64922 218.14242,419.48927   C 218.30237,419.28932 218.46233,419.04938 218.62229,418.76946   C 218.82224,418.44954 218.98219,418.12963 219.14215,417.68974   C 219.30211,417.24986 219.46207,416.76998 219.62203,416.21013   C 219.78198,415.61029 219.98193,414.93047 220.14189,414.17067   C 220.30185,413.41087 220.4618,412.5311 220.62176,411.57136   C 220.78172,410.61161 220.94168,409.57188 221.14162,408.45218   C 221.30158,407.29249 221.46154,406.0928 221.6215,404.81314   C 221.78146,403.57347 221.94141,402.25382 222.10137,400.97415   C 222.30132,399.6545 222.46128,398.33485 222.62123,397.09518   C 222.78119,395.8555 222.94115,394.61583 223.10111,393.57611   C 223.26107,392.49639 223.42102,391.49666 223.62097,390.73686   C 223.78093,389.93707 223.94089,389.29724 224.10084,388.85735   C 224.2608,388.45746 224.42076,388.21752 224.58072,388.21752   C 224.78066,388.21752 224.94062,388.45746 225.10058,388.85735   C 225.26054,389.29724 225.4205,389.93707 225.58045,390.73686   C 225.74041,391.49666 225.94036,392.49639 226.10032,393.57611   C 226.26027,394.61583 226.42023,395.8555 226.58019,397.09518   C 226.74015,398.33485 226.9001,399.6545 227.10005,400.97415   C 227.26001,402.25382 227.41997,403.57347 227.57993,404.81314   C 227.73988,406.0928 227.89984,407.29249 228.0598,408.45218   C 228.25975,409.57188 228.4197,410.61161 228.57966,411.57136   C 228.73962,412.5311 228.89958,413.41087 229.05953,414.17067   C 229.21949,414.93047 229.41944,415.61029 229.5794,416.21013   C 229.73935,416.76998 229.89931,417.24986 230.05927,417.68974   C 230.21923,418.12963 230.37919,418.44954 230.57913,418.76946   C 230.73909,419.04938 230.89905,419.28932 231.05901,419.48927   C 231.21896,419.64922 231.37892,419.80918 231.53888,419.92915   C 231.73883,420.04912 231.89878,420.1291 232.05874,420.20908   C 232.2187,420.28906 232.37866,420.32904 232.53862,420.36903   C 232.69857,420.40902 232.85853,420.44901 233.05848,420.489   C 233.21844,420.489 233.37839,420.52899 233.53835,420.52899   L 234.01823,420.52899  "
     style="fill:none;stroke:#000000;stroke-width:1.2796623px;stroke-linecap:butt;stroke-linejoin:miter;stroke-miterlimit:8;stroke-dasharray:none;stroke-opacity:1;" />
  <text
     id="text338"
     y="0.000000"
     x="0.000000"
     transform="matrix(1.000000,-0.000000,0.000000,1.000000,153.531659,435.837919)"
     style="font-size:18.562500px;font-style:normal;font-variant:normal;font-weight:400;font-stretch:Normal;line-height:125.000000%;letter-spacing:0px;word-spacing:0px;fill:#000000;fill-opacity:1;stroke:none;font-family:Arial;text-align:start;text-anchor:start;"
     xml:space="preserve"><tspan
       id="tspan336"
       y="0.000000"
       x="0.000000"><tspan
         id="tspan334"
         style="fill:#000000;font-size:18.562500px;font-style:normal;font-variant:normal;font-weight:400;font-stretch:Normal;font-family:Arial;"
         dy="0.000000"
         dx="0.000000">0</tspan></tspan></text>
  <text
     id="text344"
     y="0.000000"
     x="0.000000"
     transform="matrix(1.000000,-0.000000,0.000000,1.000000,224.367726,435.837919)"
     style="font-size:18.562500px;font-style:normal;font-variant:normal;font-weight:400;font-stretch:Normal;line-height:125.000000%;letter-spacing:0px;word-spacing:0px;fill:#000000;fill-opacity:1;stroke:none;font-family:Arial;text-align:start;text-anchor:start;"
     xml:space="preserve"><tspan
       id="tspan342"
       y="0.000000"
       x="0.000000"><tspan
         id="tspan340"
         style="fill:#000000;font-size:18.562500px;font-style:normal;font-variant:normal;font-weight:400;font-stretch:Normal;font-family:Arial;"
         dy="0.000000"
         dx="0.000000">1</tspan></tspan></text>
  <text
     id="text350"
     y="0.000000"
     x="0.000000"
     transform="matrix(1.000000,-0.000000,0.000000,1.000000,275.772125,456.574711)"
     style="font-size:18.562500px;font-style:normal;font-variant:normal;font-weight:400;font-stretch:Normal;line-height:125.000000%;letter-spacing:0px;word-spacing:0px;fill:#000000;fill-opacity:1;stroke:none;font-family:Arial;text-align:start;text-anchor:start;"
     xml:space="preserve"><tspan
       id="tspan348"
       y="0.000000"
       x="0.000000"><tspan
         id="tspan346"
         style="fill:#000000;font-size:18.562500px;font-style:normal;font-variant:normal;font-weight:400;font-stretch:Normal;font-family:Arial;"
         dy="0.000000"
         dx="0.000000">Conv_Layer</tspan></tspan></text>
  <path
     id="path352"
     d="  M 296.08184,420.52899   L 367.02312,420.52899  "
     style="fill:none;stroke:#000000;stroke-width:1.2796623px;stroke-linecap:butt;stroke-linejoin:miter;stroke-miterlimit:8;stroke-dasharray:none;stroke-opacity:1;" />
  <path
     id="path354"
     d="  M 296.08184,420.52899   L 296.48174,420.52899   L 296.88163,420.489   C 297.0016,420.44901 297.12157,420.40902 297.28153,420.36903   C 297.40149,420.32904 297.52146,420.28906 297.64143,420.20908   C 297.7614,420.1291 297.92136,420.04912 298.04133,419.92915   C 298.16129,419.80918 298.28126,419.64922 298.44122,419.48927   C 298.56119,419.28932 298.68116,419.04938 298.80112,418.76946   C 298.92109,418.44954 299.08105,418.12963 299.20102,417.68974   C 299.32099,417.24986 299.44096,416.76998 299.60091,416.21013   C 299.72088,415.61029 299.84085,414.93047 299.96082,414.17067   C 300.12078,413.41087 300.24074,412.5311 300.36071,411.57136   C 300.48068,410.61161 300.60065,409.57188 300.76061,408.45218   C 300.88058,407.29249 301.00054,406.0928 301.12051,404.81314   C 301.28047,403.57347 301.40044,402.25382 301.52041,400.97415   C 301.64038,399.6545 301.80033,398.33485 301.9203,397.09518   C 302.04027,395.8555 302.16024,394.61583 302.28021,393.57611   C 302.44016,392.49639 302.56013,391.49666 302.6801,390.73686   C 302.80007,389.93707 302.96003,389.29724 303.08,388.85735   C 303.19996,388.45746 303.31993,388.21752 303.4399,388.21752   C 303.59986,388.21752 303.71983,388.45746 303.83979,388.85735   C 303.95976,389.29724 304.11972,389.93707 304.23969,390.73686   C 304.35966,391.49666 304.47963,392.49639 304.63958,393.57611   C 304.75955,394.61583 304.87952,395.8555 304.99949,397.09518   C 305.11946,398.33485 305.27941,399.6545 305.39938,400.97415   C 305.51935,402.25382 305.63932,403.57347 305.79928,404.81314   C 305.91925,406.0928 306.03921,407.29249 306.15918,408.45218   C 306.27915,409.57188 306.43911,410.61161 306.55908,411.57136   C 306.67904,412.5311 306.79901,413.41087 306.95897,414.17067   C 307.07894,414.93047 307.19891,415.61029 307.31888,416.21013   C 307.47883,416.76998 307.5988,417.24986 307.71877,417.68974   C 307.83874,418.12963 307.95871,418.44954 308.11866,418.76946   C 308.23863,419.04938 308.3586,419.28932 308.47857,419.48927   C 308.63853,419.64922 308.7585,419.80918 308.87846,419.92915   C 308.99843,420.04912 309.15839,420.1291 309.27836,420.20908   C 309.39833,420.28906 309.5183,420.32904 309.63826,420.36903   C 309.79822,420.40902 309.91819,420.44901 310.03816,420.489   C 310.15813,420.489 310.31808,420.52899 310.43805,420.52899   L 310.79796,420.52899  "
     style="fill:none;stroke:#000000;stroke-width:1.2796623px;stroke-linecap:butt;stroke-linejoin:miter;stroke-miterlimit:8;stroke-dasharray:none;stroke-opacity:1;" />
  <text
     id="text360"
     y="0.000000"
     x="0.000000"
     transform="matrix(1.000000,-0.000000,0.000000,1.000000,285.736839,435.728144)"
     style="font-size:18.562500px;font-style:normal;font-variant:normal;font-weight:400;font-stretch:Normal;line-height:125.000000%;letter-spacing:0px;word-spacing:0px;fill:#000000;fill-opacity:1;stroke:none;font-family:Arial;text-align:start;text-anchor:start;"
     xml:space="preserve"><tspan
       id="tspan358"
       y="0.000000"
       x="0.000000"><tspan
         id="tspan356"
         style="fill:#000000;font-size:18.562500px;font-style:normal;font-variant:normal;font-weight:400;font-stretch:Normal;font-family:Arial;"
         dy="0.000000"
         dx="0.000000">0</tspan></tspan></text>
  <text
     id="text366"
     y="0.000000"
     x="0.000000"
     transform="matrix(1.000000,-0.000000,0.000000,1.000000,356.572984,435.728144)"
     style="font-size:18.562500px;font-style:normal;font-variant:normal;font-weight:400;font-stretch:Normal;line-height:125.000000%;letter-spacing:0px;word-spacing:0px;fill:#000000;fill-opacity:1;stroke:none;font-family:Arial;text-align:start;text-anchor:start;"
     xml:space="preserve"><tspan
       id="tspan364"
       y="0.000000"
       x="0.000000"><tspan
         id="tspan362"
         style="fill:#000000;font-size:18.562500px;font-style:normal;font-variant:normal;font-weight:400;font-stretch:Normal;font-family:Arial;"
         dy="0.000000"
         dx="0.000000">1</tspan></tspan></text>
  <text
     id="text372"
     y="0.000000"
     x="0.000000"
     transform="matrix(1.000000,-0.000000,0.000000,1.000000,399.277180,456.574594)"
     style="font-size:18.562500px;font-style:normal;font-variant:normal;font-weight:400;font-stretch:Normal;line-height:125.000000%;letter-spacing:0px;word-spacing:0px;fill:#000000;fill-opacity:1;stroke:none;font-family:Arial;text-align:start;text-anchor:start;"
     xml:space="preserve"><tspan
       id="tspan370"
       y="0.000000"
       x="0.000000"><tspan
         id="tspan368"
         style="fill:#000000;font-size:18.562500px;font-style:normal;font-variant:normal;font-weight:400;font-stretch:Normal;font-family:Arial;"
         dy="0.000000"
         dx="0.000000">Gamma</tspan></tspan></text>
  <path
     id="path374"
     d="  M 404.53321,420.52899   L 475.47449,420.52899  "
     style="fill:none;stroke:#000000;stroke-width:1.2796623px;stroke-linecap:butt;stroke-linejoin:miter;stroke-miterlimit:8;stroke-dasharray:none;stroke-opacity:1;" />
  <path
     id="path376"
     d="  M 423.40823,420.52899   L 424.60791,420.52899   L 425.8076,420.489   C 426.20749,420.44901 426.60739,420.40902 427.00728,420.36903   C 427.36719,420.32904 427.76708,420.28906 428.16698,420.20908   C 428.56687,420.1291 428.96676,420.04912 429.36666,419.92915   C 429.76655,419.80918 430.16645,419.64922 430.56634,419.48927   C 430.92625,419.28932 431.32614,419.04938 431.72604,418.76946   C 432.12593,418.44954 432.52582,418.12963 432.92572,417.68974   C 433.32561,417.24986 433.72551,416.76998 434.1254,416.21013   C 434.5253,415.61029 434.8852,414.93047 435.2851,414.17067   C 435.68499,413.41087 436.08489,412.5311 436.48478,411.57136   C 436.88467,410.61161 437.28457,409.57188 437.68446,408.45218   C 438.08436,407.29249 438.44426,406.0928 438.84416,404.81314   C 439.24405,403.57347 439.64395,402.25382 440.04384,400.97415   C 440.44373,399.6545 440.84363,398.33485 441.24352,397.09518   C 441.64342,395.8555 442.04331,394.61583 442.40322,393.57611   C 442.80311,392.49639 443.20301,391.49666 443.6029,390.73686   C 444.0028,389.93707 444.40269,389.29724 444.80258,388.85735   C 445.20248,388.45746 445.60237,388.21752 445.96228,388.21752   C 446.36217,388.21752 446.76207,388.45746 447.16196,388.85735   C 447.56186,389.29724 447.96175,389.93707 448.36164,390.73686   C 448.76154,391.49666 449.16143,392.49639 449.56133,393.57611   C 449.92123,394.61583 450.32113,395.8555 450.72102,397.09518   C 451.12092,398.33485 451.52081,399.6545 451.92071,400.97415   C 452.3206,402.25382 452.72049,403.57347 453.12039,404.81314   C 453.48029,406.0928 453.88019,407.29249 454.28008,408.45218   C 454.67998,409.57188 455.07987,410.61161 455.47977,411.57136   C 455.87966,412.5311 456.27955,413.41087 456.67945,414.17067   C 457.07934,414.93047 457.43925,415.61029 457.83914,416.21013   C 458.23904,416.76998 458.63893,417.24986 459.03883,417.68974   C 459.43872,418.12963 459.83861,418.44954 460.23851,418.76946   C 460.6384,419.04938 460.99831,419.28932 461.3982,419.48927   C 461.7981,419.64922 462.19799,419.80918 462.59789,419.92915   C 462.99778,420.04912 463.39768,420.1291 463.79757,420.20908   C 464.19746,420.28906 464.59736,420.32904 464.95726,420.36903   C 465.35716,420.40902 465.75705,420.44901 466.15695,420.489   C 466.55684,420.489 466.95674,420.52899 467.35663,420.52899   L 468.51632,420.52899  "
     style="fill:none;stroke:#000000;stroke-width:1.2796623px;stroke-linecap:butt;stroke-linejoin:miter;stroke-miterlimit:8;stroke-dasharray:none;stroke-opacity:1;" />
  <text
     id="text382"
     y="0.000000"
     x="0.000000"
     transform="matrix(1.000000,-0.000000,0.000000,1.000000,394.198520,435.838115)"
     style="font-size:18.562500px;font-style:normal;font-variant:normal;font-weight:400;font-stretch:Normal;line-height:125.000000%;letter-spacing:0px;word-spacing:0px;fill:#000000;fill-opacity:1;stroke:none;font-family:Arial;text-align:start;text-anchor:start;"
     xml:space="preserve"><tspan
       id="tspan380"
       y="0.000000"
       x="0.000000"><tspan
         id="tspan378"
         style="fill:#000000;font-size:18.562500px;font-style:normal;font-variant:normal;font-weight:400;font-stretch:Normal;font-family:Arial;"
         dy="0.000000"
         dx="0.000000">0</tspan></tspan></text>
  <text
     id="text388"
     y="0.000000"
     x="0.000000"
     transform="matrix(1.000000,-0.000000,0.000000,1.000000,465.034587,435.838115)"
     style="font-size:18.562500px;font-style:normal;font-variant:normal;font-weight:400;font-stretch:Normal;line-height:125.000000%;letter-spacing:0px;word-spacing:0px;fill:#000000;fill-opacity:1;stroke:none;font-family:Arial;text-align:start;text-anchor:start;"
     xml:space="preserve"><tspan
       id="tspan386"
       y="0.000000"
       x="0.000000"><tspan
         id="tspan384"
         style="fill:#000000;font-size:18.562500px;font-style:normal;font-variant:normal;font-weight:400;font-stretch:Normal;font-family:Arial;"
         dy="0.000000"
         dx="0.000000">1</tspan></tspan></text>
  <text
     id="text394"
     y="0.000000"
     x="0.000000"
     transform="matrix(1.000000,-0.000000,0.000000,1.000000,488.863922,422.734698)"
     style="font-size:18.562500px;font-style:normal;font-variant:normal;font-weight:400;font-stretch:Normal;line-height:125.000000%;letter-spacing:0px;word-spacing:0px;fill:#000000;fill-opacity:1;stroke:none;font-family:Arial;text-align:start;text-anchor:start;"
     xml:space="preserve"><tspan
       id="tspan392"
       y="0.000000"
       x="0.000000"><tspan
         id="tspan390"
         style="fill:#000000;font-size:18.562500px;font-style:normal;font-variant:normal;font-weight:400;font-stretch:Normal;font-family:Arial;"
         dy="0.000000"
         dx="0.000000">…</tspan></tspan></text>
  <text
     id="text400"
     y="0.000000"
     x="0.000000"
     transform="matrix(1.000000,-0.000000,0.000000,1.000000,-0.134730,103.898140)"
     style="font-size:18.562500px;font-style:normal;font-variant:normal;font-weight:400;font-stretch:Normal;line-height:125.000000%;letter-spacing:0px;word-spacing:0px;fill:#000000;fill-opacity:1;stroke:none;font-family:Arial;text-align:start;text-anchor:start;"
     xml:space="preserve"><tspan
       id="tspan398"
       y="0.000000"
       x="0.000000"><tspan
         id="tspan396"
         style="fill:#000000;font-size:18.562500px;font-style:normal;font-variant:normal;font-weight:400;font-stretch:Normal;font-family:Arial;"
         dy="0.000000"
         dx="0.000000">Case </tspan></tspan></text>
  <text
     id="text406"
     y="0.000000"
     x="0.000000"
     transform="matrix(1.000000,-0.000000,0.000000,1.000000,-0.134730,126.292229)"
     style="font-size:18.562500px;font-style:normal;font-variant:normal;font-weight:400;font-stretch:Normal;line-height:125.000000%;letter-spacing:0px;word-spacing:0px;fill:#000000;fill-opacity:1;stroke:none;font-family:Arial;text-align:start;text-anchor:start;"
     xml:space="preserve"><tspan
       id="tspan404"
       y="0.000000"
       x="0.000000"><tspan
         id="tspan402"
         style="fill:#000000;font-size:18.562500px;font-style:normal;font-variant:normal;font-weight:400;font-stretch:Normal;font-family:Arial;"
         dy="0.000000"
         dx="0.000000">Descriptions</tspan></tspan></text>
  <text
     id="text412"
     y="0.000000"
     x="0.000000"
     transform="matrix(1.000000,-0.000000,0.000000,1.000000,5.908050,261.239907)"
     style="font-size:18.562500px;font-style:normal;font-variant:normal;font-weight:400;font-stretch:Normal;line-height:125.000000%;letter-spacing:0px;word-spacing:0px;fill:#000000;fill-opacity:1;stroke:none;font-family:Arial;text-align:start;text-anchor:start;"
     xml:space="preserve"><tspan
       id="tspan410"
       y="0.000000"
       x="0.000000"><tspan
         id="tspan408"
         style="fill:#000000;font-size:18.562500px;font-style:normal;font-variant:normal;font-weight:400;font-stretch:Normal;font-family:Arial;"
         dy="0.000000"
         dx="0.000000">Case </tspan></tspan></text>
  <text
     id="text418"
     y="0.000000"
     x="0.000000"
     transform="matrix(1.000000,-0.000000,0.000000,1.000000,5.908050,283.633995)"
     style="font-size:18.562500px;font-style:normal;font-variant:normal;font-weight:400;font-stretch:Normal;line-height:125.000000%;letter-spacing:0px;word-spacing:0px;fill:#000000;fill-opacity:1;stroke:none;font-family:Arial;text-align:start;text-anchor:start;"
     xml:space="preserve"><tspan
       id="tspan416"
       y="0.000000"
       x="0.000000"><tspan
         id="tspan414"
         style="fill:#000000;font-size:18.562500px;font-style:normal;font-variant:normal;font-weight:400;font-stretch:Normal;font-family:Arial;"
         dy="0.000000"
         dx="0.000000">Embeddings</tspan></tspan></text>
  <text
     id="text424"
     y="0.000000"
     x="0.000000"
     transform="matrix(1.000000,-0.000000,0.000000,1.000000,114.679337,283.633995)"
     style="font-size:18.562500px;font-style:normal;font-variant:normal;font-weight:400;font-stretch:Normal;line-height:125.000000%;letter-spacing:0px;word-spacing:0px;fill:#000000;fill-opacity:1;stroke:none;font-family:Arial;text-align:start;text-anchor:start;"
     xml:space="preserve"><tspan
       id="tspan422"
       y="0.000000"
       x="0.000000"><tspan
         id="tspan420"
         style="fill:#000000;font-size:18.562500px;font-style:normal;font-variant:normal;font-weight:400;font-stretch:Normal;font-family:Arial;"
         dy="0.000000"
         dx="0.000000">h</tspan></tspan></text>
  <text
     id="text430"
     y="0.000000"
     x="0.000000"
     transform="matrix(1.000000,-0.000000,0.000000,1.000000,9.953466,421.010974)"
     style="font-size:18.562500px;font-style:normal;font-variant:normal;font-weight:400;font-stretch:Normal;line-height:125.000000%;letter-spacing:0px;word-spacing:0px;fill:#000000;fill-opacity:1;stroke:none;font-family:Arial;text-align:start;text-anchor:start;"
     xml:space="preserve"><tspan
       id="tspan428"
       y="0.000000"
       x="0.000000"><tspan
         id="tspan426"
         style="fill:#000000;font-size:18.562500px;font-style:normal;font-variant:normal;font-weight:400;font-stretch:Normal;font-family:Arial;"
         dy="0.000000"
         dx="0.000000">Similarity</tspan></tspan></text>
  <text
     id="text436"
     y="0.000000"
     x="0.000000"
     transform="matrix(1.000000,-0.000000,0.000000,1.000000,9.953466,443.405062)"
     style="font-size:18.562500px;font-style:normal;font-variant:normal;font-weight:400;font-stretch:Normal;line-height:125.000000%;letter-spacing:0px;word-spacing:0px;fill:#000000;fill-opacity:1;stroke:none;font-family:Arial;text-align:start;text-anchor:start;"
     xml:space="preserve"><tspan
       id="tspan434"
       y="0.000000"
       x="0.000000"><tspan
         id="tspan432"
         style="fill:#000000;font-size:18.562500px;font-style:normal;font-variant:normal;font-weight:400;font-stretch:Normal;font-family:Arial;"
         dy="0.000000"
         dx="0.000000">Score</tspan></tspan></text>
</svg>
